<svg xmlns="http://www.w3.org/2000/svg" viewBox="0 0 1024 1024" role="img" aria-labelledby="title">
  <title>Skate Robot app icon</title>
  <rect width="1024" height="1024" fill="#ffffff"/>
  <g transform="translate(142 96) scale(7.4)" color="#24283a" fill="none" stroke="currentColor" stroke-linecap="round" stroke-linejoin="round">
    <line x1="48" y1="9" x2="48" y2="3" stroke-width="4"/>
    <circle cx="48" cy="2.5" r="4" fill="#e05c7a" stroke-width="3"/>

    <path d="M30 56 C20 60, 16 70, 14 76" stroke-width="4"/>
    <path d="M66 56 C76 60, 80 70, 82 76" stroke-width="4"/>
    <circle cx="13" cy="78" r="5" fill="#e05c7a" stroke-width="3"/>
    <circle cx="83" cy="78" r="5" fill="#e05c7a" stroke-width="3"/>

    <rect x="25" y="9" width="46" height="40" rx="14" fill="#7ec8e3" stroke-width="4"/>
    <g fill="currentColor" stroke="none">
      <circle cx="39" cy="27" r="4.6"/>
      <circle cx="57" cy="27" r="4.6"/>
    </g>
    <path d="M42 41 h12" stroke-width="3.6"/>

    <g stroke-width="4">
      <line x1="41" y1="78" x2="38" y2="95"/>
      <line x1="55" y1="78" x2="58" y2="95"/>
    </g>

    <rect x="31" y="50" width="34" height="28" rx="11" fill="#7ec8e3" stroke-width="4"/>
    <rect x="39" y="58" width="18" height="14" rx="4" fill="#e05c7a" stroke-width="3"/>

    <g transform="translate(18 86)">
      <path d="M0 0 q4 6 12 6 h40 q8 0 12 -6" stroke-width="4"/>
      <circle cx="16" cy="10" r="3.8" fill="#e05c7a" stroke-width="2.5"/>
      <circle cx="48" cy="10" r="3.8" fill="#e05c7a" stroke-width="2.5"/>
    </g>
  </g>
</svg>
